Coordinates
version=1
nRows=49
nColumns=12
inDegrees=yes

Units are S.I. units (second, meters, Newtons, ...)
Angles are in degrees

endheader
time	SC_y	SC_z	SC_x	AC_y	AC_z	AC_x	GH_y	GH_z	GH_yy	EL_x	PS_y
       0.0              -35.17          28.08          80.23          43.18          8.398           9.45          127.7          -18.5         -157.0          108.3          152.2
   0.04271              -35.17          28.08          80.22          43.18          8.395          9.445          127.7         -18.49         -157.0          108.3          152.2
   0.08542              -35.17          28.08          80.21          43.18          8.392          9.441          127.7         -18.49         -157.0          108.3          152.2
    0.1281              -35.17          28.08           80.2          43.18          8.389          9.436          127.7         -18.48         -156.9          108.3          152.2
    0.1708              -35.17          28.08          80.19          43.19          8.385          9.431          127.7         -18.47         -156.9          108.3          152.2
    0.2136              -35.17          28.07          80.17          43.19          8.382          9.426          127.7         -18.46         -156.8          108.3          152.2
    0.2563              -35.17          28.07          80.16          43.19          8.378           9.42          127.7         -18.46         -156.7          108.3          152.2
     0.299              -35.17          28.07          80.15          43.19          8.374          9.414          127.7         -18.45         -156.7          108.3          152.2
    0.3417              -35.17          28.07          80.13           43.2          8.369          9.407          127.7         -18.44         -156.6          108.3          152.2
    0.3844              -35.17          28.07          80.12           43.2          8.364            9.4          127.7         -18.43         -156.6          108.3          152.2
    0.4271              -35.17          28.07           80.1           43.2          8.359          9.392          127.7         -18.42         -156.5          108.4          152.2
    0.4698              -35.17          28.07          80.08          43.21          8.354          9.384          127.7         -18.41         -156.4          108.4          152.2
    0.5125              -35.17          28.07          80.06          43.21          8.348          9.375          127.7         -18.39         -156.3          108.4          152.1
    0.5553              -35.17          28.07          80.04          43.21          8.341          9.366          127.7         -18.38         -156.2          108.4          152.1
     0.598              -35.17          28.07          80.02          43.22          8.335          9.355          127.7         -18.36         -156.1          108.4          152.1
    0.6407              -35.17          28.07          79.99          43.22          8.327          9.344          127.7         -18.35         -156.0          108.4          152.1
    0.6834              -35.17          28.06          79.96          43.23          8.319          9.332          127.6         -18.33         -155.9          108.4          152.1
    0.7261              -35.17          28.06          79.94          43.23           8.31          9.319          127.6         -18.31         -155.8          108.4          152.1
    0.7688              -35.17          28.06           79.9          43.24            8.3          9.304          127.6         -18.29         -155.6          108.4          152.1
    0.8115              -35.17          28.06          79.87          43.25           8.29          9.288          127.6         -18.27         -155.5          108.4          152.1
    0.8542              -35.17          28.06          79.83          43.25          8.278          9.271          127.6         -18.24         -155.3          108.5          152.1
     0.897              -35.17          28.05          79.79          43.26          8.265          9.252          127.6         -18.22         -155.1          108.5          152.1
    0.9397              -35.17          28.05          79.74          43.27          8.251          9.231          127.6         -18.19         -154.9          108.5          152.1
    0.9824              -35.17          28.05          79.69          43.28          8.235          9.207          127.5         -18.15         -154.7          108.5          152.1
     1.025              -35.17          28.05          79.63          43.29          8.217          9.181          127.5         -18.11         -154.4          108.5          152.1
     1.068              -35.17          28.04          79.56           43.3          8.198          9.152          127.5         -18.07         -154.1          108.6          152.0
     1.111              -35.18          28.04          79.49          43.32          8.176          9.119          127.5         -18.03         -153.8          108.6          152.0
     1.153              -35.18          28.03          79.41          43.33          8.151          9.083          127.4         -17.97         -153.4          108.6          152.0
     1.196              -35.18          28.03          79.32          43.35          8.124          9.041          127.4         -17.92         -153.0          108.6          152.0
     1.239              -35.18          28.02          79.21          43.37          8.092          8.994          127.4         -17.85         -152.6          108.7          152.0
     1.281              -35.18          28.02          79.09          43.39          8.056          8.941          127.3         -17.77         -152.0          108.7          152.0
     1.324              -35.18          28.01          78.96          43.42          8.015          8.879          127.3         -17.68         -151.4          108.8          151.9
     1.367              -35.18           28.0           78.8          43.45          7.967          8.808          127.2         -17.58         -150.7          108.8          151.9
     1.409              -35.18          27.99          78.61          43.48          7.911          8.725          127.2         -17.46         -149.9          108.9          151.9
     1.452              -35.18          27.98           78.4          43.52          7.846          8.628          127.1         -17.32         -148.9          109.0          151.8
     1.495              -35.18          27.97          78.14          43.57           7.77          8.514          127.0         -17.16         -147.8          109.1          151.8
     1.538              -35.18          27.95          77.84          43.63          7.679          8.379          126.9         -16.97         -146.5          109.2          151.7
      1.58              -35.18          27.93          77.48          43.69           7.57          8.216          126.7         -16.74         -144.9          109.3          151.6
     1.623              -35.18          27.91          77.04          43.78          7.438           8.02          126.6         -16.45         -143.0          109.5          151.5
     1.666              -35.19          27.88          76.51          43.88          7.276           7.78          126.4         -16.11         -140.6          109.7          151.4
     1.708              -35.19          27.84          75.85           44.0          7.077          7.484          126.2         -15.69         -137.7          110.0          151.3
     1.751              -35.19           27.8          75.03          44.16          6.829          7.114          125.9         -15.16         -134.0          110.3          151.1
     1.794               -35.2          27.74          73.99          44.35          6.517          6.649          125.5         -14.49         -129.4          110.7          150.9
     1.837               -35.2          27.67          72.67           44.6           6.12          6.057          125.0         -13.65         -123.6          111.1          150.7
     1.879              -35.21          27.58          70.99          44.91          5.611            5.3          124.4         -12.56         -116.1          111.8          150.3
     1.922              -35.22          27.47          68.83          45.32          4.958          4.328          123.6         -11.18         -106.6          112.6          149.9
     1.965              -35.23          27.32          66.06          45.84          4.125          3.086          122.6           -9.4         -94.33          113.6          149.3
     2.007              -35.24          27.13          62.59          46.49          3.077          1.525          121.4         -7.168         -78.95          114.9          148.6
      2.05              -35.26           26.9          58.35          47.29          1.799         -0.377          119.8         -4.448          -60.2          116.5          147.8
